<mxfile host="app.diagrams.net" modified="2020-09-28T15:23:07.323Z" agent="5.0 (Windows NT 10.0; Win64; x64) AppleWebKit/537.36 (KHTML, like Gecko) Chrome/85.0.4183.121 Safari/537.36" etag="i91We_8dALIifrgqJwBU" version="13.7.5" type="github">
  <diagram id="0mYaCN3qe747mq3e9iOZ" name="Page-1">
    <mxGraphModel dx="2622" dy="773" grid="1" gridSize="10" guides="1" tooltips="1" connect="1" arrows="1" fold="1" page="1" pageScale="1" pageWidth="1200" pageHeight="1920" math="0" shadow="0">
      <root>
        <mxCell id="0" />
        <mxCell id="1" parent="0" />
        <mxCell id="40Ze9KYtn5aqHLdsqzYY-5" value="" style="edgeStyle=orthogonalEdgeStyle;rounded=0;orthogonalLoop=1;jettySize=auto;html=1;strokeColor=#b85450;strokeWidth=3;fillColor=#f8cecc;exitX=0.25;exitY=1;exitDx=0;exitDy=0;entryX=0.25;entryY=0;entryDx=0;entryDy=0;" parent="1" source="rgbOEal_TrCjj79onmxh-1" target="40Ze9KYtn5aqHLdsqzYY-4" edge="1">
          <mxGeometry relative="1" as="geometry" />
        </mxCell>
        <mxCell id="40Ze9KYtn5aqHLdsqzYY-27" style="edgeStyle=orthogonalEdgeStyle;rounded=0;orthogonalLoop=1;jettySize=auto;html=1;exitX=0;exitY=1;exitDx=0;exitDy=0;entryX=0;entryY=0;entryDx=0;entryDy=0;strokeWidth=3;strokeColor=#82b366;fillColor=#d5e8d4;" parent="1" source="rgbOEal_TrCjj79onmxh-1" target="40Ze9KYtn5aqHLdsqzYY-4" edge="1">
          <mxGeometry relative="1" as="geometry" />
        </mxCell>
        <mxCell id="ZwONIrTSn7If3N10A5RL-27" style="edgeStyle=orthogonalEdgeStyle;rounded=0;orthogonalLoop=1;jettySize=auto;html=1;exitX=0.5;exitY=1;exitDx=0;exitDy=0;strokeColor=#d79b00;strokeWidth=3;fillColor=#ffe6cc;" edge="1" parent="1" source="rgbOEal_TrCjj79onmxh-1" target="40Ze9KYtn5aqHLdsqzYY-4">
          <mxGeometry relative="1" as="geometry" />
        </mxCell>
        <mxCell id="ZwONIrTSn7If3N10A5RL-36" style="edgeStyle=orthogonalEdgeStyle;rounded=0;orthogonalLoop=1;jettySize=auto;html=1;exitX=0.75;exitY=1;exitDx=0;exitDy=0;entryX=0.75;entryY=0;entryDx=0;entryDy=0;strokeColor=#9673a6;strokeWidth=3;fillColor=#e1d5e7;" edge="1" parent="1" source="rgbOEal_TrCjj79onmxh-1" target="40Ze9KYtn5aqHLdsqzYY-4">
          <mxGeometry relative="1" as="geometry" />
        </mxCell>
        <mxCell id="rgbOEal_TrCjj79onmxh-1" value="Main: ACAC_BASISDATA_SEL_FOR_MAIN&lt;br&gt;&lt;div&gt;&lt;span&gt;Incl: ACE_BASISDATA_SEL_FOR_MAINTM10&lt;/span&gt;&lt;/div&gt;&lt;div&gt;&lt;/div&gt;Form: SELECT_ACEOBJECTS" style="rounded=0;whiteSpace=wrap;html=1;align=left;" parent="1" vertex="1">
          <mxGeometry x="395" y="200" width="320" height="60" as="geometry" />
        </mxCell>
        <mxCell id="40Ze9KYtn5aqHLdsqzYY-2" style="edgeStyle=orthogonalEdgeStyle;rounded=0;orthogonalLoop=1;jettySize=auto;html=1;exitX=0.063;exitY=0.788;exitDx=0;exitDy=0;exitPerimeter=0;entryX=0.5;entryY=0;entryDx=0;entryDy=0;" parent="1" source="40Ze9KYtn5aqHLdsqzYY-1" target="40Ze9KYtn5aqHLdsqzYY-10" edge="1">
          <mxGeometry relative="1" as="geometry">
            <Array as="points">
              <mxPoint x="55" y="250" />
              <mxPoint x="100" y="250" />
            </Array>
          </mxGeometry>
        </mxCell>
        <mxCell id="40Ze9KYtn5aqHLdsqzYY-3" value="multiple selection" style="edgeLabel;html=1;align=center;verticalAlign=middle;resizable=0;points=[];" parent="40Ze9KYtn5aqHLdsqzYY-2" vertex="1" connectable="0">
          <mxGeometry x="0.2255" y="3" relative="1" as="geometry">
            <mxPoint x="-57.04" y="-22" as="offset" />
          </mxGeometry>
        </mxCell>
        <mxCell id="40Ze9KYtn5aqHLdsqzYY-1" value="ACAC" style="ellipse;whiteSpace=wrap;html=1;aspect=fixed;" parent="1" vertex="1">
          <mxGeometry x="50" y="130" width="80" height="80" as="geometry" />
        </mxCell>
        <mxCell id="40Ze9KYtn5aqHLdsqzYY-7" value="" style="edgeStyle=orthogonalEdgeStyle;rounded=0;orthogonalLoop=1;jettySize=auto;html=1;strokeColor=#b85450;strokeWidth=3;fillColor=#f8cecc;exitX=0.25;exitY=1;exitDx=0;exitDy=0;entryX=0.25;entryY=0;entryDx=0;entryDy=0;" parent="1" source="40Ze9KYtn5aqHLdsqzYY-4" target="40Ze9KYtn5aqHLdsqzYY-6" edge="1">
          <mxGeometry relative="1" as="geometry" />
        </mxCell>
        <mxCell id="40Ze9KYtn5aqHLdsqzYY-28" style="edgeStyle=orthogonalEdgeStyle;rounded=0;orthogonalLoop=1;jettySize=auto;html=1;exitX=0;exitY=1;exitDx=0;exitDy=0;entryX=0;entryY=0;entryDx=0;entryDy=0;strokeWidth=3;strokeColor=#82b366;fillColor=#d5e8d4;" parent="1" source="40Ze9KYtn5aqHLdsqzYY-4" target="40Ze9KYtn5aqHLdsqzYY-6" edge="1">
          <mxGeometry relative="1" as="geometry" />
        </mxCell>
        <mxCell id="ZwONIrTSn7If3N10A5RL-28" style="edgeStyle=orthogonalEdgeStyle;rounded=0;orthogonalLoop=1;jettySize=auto;html=1;entryX=0.5;entryY=0;entryDx=0;entryDy=0;strokeColor=#d79b00;strokeWidth=3;fillColor=#ffe6cc;" edge="1" parent="1" source="40Ze9KYtn5aqHLdsqzYY-4" target="40Ze9KYtn5aqHLdsqzYY-6">
          <mxGeometry relative="1" as="geometry" />
        </mxCell>
        <mxCell id="ZwONIrTSn7If3N10A5RL-37" style="edgeStyle=orthogonalEdgeStyle;rounded=0;orthogonalLoop=1;jettySize=auto;html=1;exitX=0.75;exitY=1;exitDx=0;exitDy=0;entryX=0.75;entryY=0;entryDx=0;entryDy=0;strokeColor=#9673a6;strokeWidth=3;fillColor=#e1d5e7;" edge="1" parent="1" source="40Ze9KYtn5aqHLdsqzYY-4" target="40Ze9KYtn5aqHLdsqzYY-6">
          <mxGeometry relative="1" as="geometry" />
        </mxCell>
        <mxCell id="40Ze9KYtn5aqHLdsqzYY-4" value="cl_ace_mdo_db_buffer=&amp;gt;load_all_buffer" style="rounded=0;whiteSpace=wrap;html=1;" parent="1" vertex="1">
          <mxGeometry x="390" y="310" width="310" height="30" as="geometry" />
        </mxCell>
        <mxCell id="40Ze9KYtn5aqHLdsqzYY-9" value="" style="edgeStyle=orthogonalEdgeStyle;rounded=0;orthogonalLoop=1;jettySize=auto;html=1;strokeColor=#b85450;strokeWidth=3;fillColor=#f8cecc;exitX=0.25;exitY=1;exitDx=0;exitDy=0;entryX=0.25;entryY=0;entryDx=0;entryDy=0;" parent="1" source="40Ze9KYtn5aqHLdsqzYY-6" target="40Ze9KYtn5aqHLdsqzYY-8" edge="1">
          <mxGeometry relative="1" as="geometry" />
        </mxCell>
        <mxCell id="40Ze9KYtn5aqHLdsqzYY-29" style="edgeStyle=orthogonalEdgeStyle;rounded=0;orthogonalLoop=1;jettySize=auto;html=1;exitX=0;exitY=1;exitDx=0;exitDy=0;entryX=0;entryY=0;entryDx=0;entryDy=0;strokeWidth=3;strokeColor=#82b366;fillColor=#d5e8d4;" parent="1" source="40Ze9KYtn5aqHLdsqzYY-6" target="40Ze9KYtn5aqHLdsqzYY-8" edge="1">
          <mxGeometry relative="1" as="geometry" />
        </mxCell>
        <mxCell id="ZwONIrTSn7If3N10A5RL-29" style="edgeStyle=orthogonalEdgeStyle;rounded=0;orthogonalLoop=1;jettySize=auto;html=1;exitX=0.5;exitY=1;exitDx=0;exitDy=0;entryX=0.5;entryY=0;entryDx=0;entryDy=0;strokeColor=#d79b00;strokeWidth=3;fillColor=#ffe6cc;" edge="1" parent="1" source="40Ze9KYtn5aqHLdsqzYY-6" target="40Ze9KYtn5aqHLdsqzYY-8">
          <mxGeometry relative="1" as="geometry" />
        </mxCell>
        <mxCell id="ZwONIrTSn7If3N10A5RL-38" style="edgeStyle=orthogonalEdgeStyle;rounded=0;orthogonalLoop=1;jettySize=auto;html=1;exitX=0.75;exitY=1;exitDx=0;exitDy=0;entryX=0.75;entryY=0;entryDx=0;entryDy=0;strokeColor=#9673a6;strokeWidth=3;fillColor=#e1d5e7;" edge="1" parent="1" source="40Ze9KYtn5aqHLdsqzYY-6" target="40Ze9KYtn5aqHLdsqzYY-8">
          <mxGeometry relative="1" as="geometry" />
        </mxCell>
        <mxCell id="40Ze9KYtn5aqHLdsqzYY-6" value="CL_ACE_MDO_DBBUF_POSTINGS-&amp;gt;load_buffer" style="rounded=0;whiteSpace=wrap;html=1;" parent="1" vertex="1">
          <mxGeometry x="400" y="410" width="310" height="40" as="geometry" />
        </mxCell>
        <mxCell id="ZwONIrTSn7If3N10A5RL-15" style="edgeStyle=orthogonalEdgeStyle;rounded=0;orthogonalLoop=1;jettySize=auto;html=1;strokeWidth=7;entryX=0;entryY=0.5;entryDx=0;entryDy=0;exitX=0;exitY=0.5;exitDx=0;exitDy=0;" edge="1" parent="1" source="40Ze9KYtn5aqHLdsqzYY-8" target="ZwONIrTSn7If3N10A5RL-30">
          <mxGeometry relative="1" as="geometry" />
        </mxCell>
        <mxCell id="ZwONIrTSn7If3N10A5RL-39" style="edgeStyle=orthogonalEdgeStyle;rounded=0;orthogonalLoop=1;jettySize=auto;html=1;exitX=0.5;exitY=1;exitDx=0;exitDy=0;entryX=0.75;entryY=0;entryDx=0;entryDy=0;strokeColor=#9673a6;strokeWidth=3;fillColor=#e1d5e7;" edge="1" parent="1" source="40Ze9KYtn5aqHLdsqzYY-8" target="ZwONIrTSn7If3N10A5RL-30">
          <mxGeometry relative="1" as="geometry" />
        </mxCell>
        <mxCell id="ZwONIrTSn7If3N10A5RL-55" value="1" style="edgeLabel;html=1;align=center;verticalAlign=middle;resizable=0;points=[];" vertex="1" connectable="0" parent="ZwONIrTSn7If3N10A5RL-39">
          <mxGeometry x="0.1905" y="3" relative="1" as="geometry">
            <mxPoint as="offset" />
          </mxGeometry>
        </mxCell>
        <mxCell id="ZwONIrTSn7If3N10A5RL-56" value="2" style="edgeStyle=orthogonalEdgeStyle;rounded=0;orthogonalLoop=1;jettySize=auto;html=1;exitX=0.75;exitY=1;exitDx=0;exitDy=0;strokeColor=#9673a6;strokeWidth=3;fillColor=#e1d5e7;" edge="1" parent="1" source="40Ze9KYtn5aqHLdsqzYY-8" target="40Ze9KYtn5aqHLdsqzYY-15">
          <mxGeometry relative="1" as="geometry">
            <Array as="points">
              <mxPoint x="661" y="610" />
              <mxPoint x="670" y="610" />
            </Array>
          </mxGeometry>
        </mxCell>
        <mxCell id="ZwONIrTSn7If3N10A5RL-57" style="edgeStyle=orthogonalEdgeStyle;rounded=0;orthogonalLoop=1;jettySize=auto;html=1;exitX=1;exitY=1;exitDx=0;exitDy=0;entryX=0.625;entryY=0;entryDx=0;entryDy=0;strokeColor=#6c8ebf;strokeWidth=3;fillColor=#dae8fc;" edge="1" parent="1" source="40Ze9KYtn5aqHLdsqzYY-8" target="40Ze9KYtn5aqHLdsqzYY-15">
          <mxGeometry relative="1" as="geometry" />
        </mxCell>
        <mxCell id="40Ze9KYtn5aqHLdsqzYY-8" value="CL_ACE_MDO_DBBUF_POSTINGS-&amp;gt;load_buffer_for_selectparams" style="rounded=0;whiteSpace=wrap;html=1;" parent="1" vertex="1">
          <mxGeometry x="364.5" y="510" width="395" height="45" as="geometry" />
        </mxCell>
        <mxCell id="40Ze9KYtn5aqHLdsqzYY-11" style="edgeStyle=orthogonalEdgeStyle;rounded=0;orthogonalLoop=1;jettySize=auto;html=1;exitX=1;exitY=0.5;exitDx=0;exitDy=0;fillColor=#f8cecc;strokeColor=#b85450;strokeWidth=3;entryX=0.25;entryY=0;entryDx=0;entryDy=0;" parent="1" source="40Ze9KYtn5aqHLdsqzYY-10" target="40Ze9KYtn5aqHLdsqzYY-22" edge="1">
          <mxGeometry relative="1" as="geometry">
            <mxPoint x="540" y="200" as="targetPoint" />
            <Array as="points">
              <mxPoint x="310" y="340" />
              <mxPoint x="310" y="10" />
              <mxPoint x="498" y="10" />
            </Array>
          </mxGeometry>
        </mxCell>
        <mxCell id="ZwONIrTSn7If3N10A5RL-24" value="Press Enter on selection screen" style="edgeLabel;html=1;align=center;verticalAlign=middle;resizable=0;points=[];" vertex="1" connectable="0" parent="40Ze9KYtn5aqHLdsqzYY-11">
          <mxGeometry x="-0.823" y="-1" relative="1" as="geometry">
            <mxPoint x="31" y="-1" as="offset" />
          </mxGeometry>
        </mxCell>
        <mxCell id="40Ze9KYtn5aqHLdsqzYY-20" style="edgeStyle=orthogonalEdgeStyle;rounded=0;orthogonalLoop=1;jettySize=auto;html=1;exitX=0.5;exitY=1;exitDx=0;exitDy=0;entryX=0;entryY=0.5;entryDx=0;entryDy=0;strokeWidth=3;strokeColor=#82b366;fillColor=#d5e8d4;" parent="1" source="40Ze9KYtn5aqHLdsqzYY-10" target="40Ze9KYtn5aqHLdsqzYY-22" edge="1">
          <mxGeometry relative="1" as="geometry">
            <Array as="points">
              <mxPoint x="150" y="400" />
              <mxPoint x="350" y="400" />
              <mxPoint x="350" y="70" />
            </Array>
          </mxGeometry>
        </mxCell>
        <mxCell id="40Ze9KYtn5aqHLdsqzYY-21" value="Directly Press F8 on selection screen" style="edgeLabel;html=1;align=center;verticalAlign=middle;resizable=0;points=[];" parent="40Ze9KYtn5aqHLdsqzYY-20" vertex="1" connectable="0">
          <mxGeometry x="-0.8105" y="-2" relative="1" as="geometry">
            <mxPoint as="offset" />
          </mxGeometry>
        </mxCell>
        <mxCell id="40Ze9KYtn5aqHLdsqzYY-10" value="" style="rhombus;whiteSpace=wrap;html=1;" parent="1" vertex="1">
          <mxGeometry x="60" y="295" width="80" height="80" as="geometry" />
        </mxCell>
        <mxCell id="ZwONIrTSn7If3N10A5RL-3" value="" style="edgeStyle=orthogonalEdgeStyle;rounded=0;orthogonalLoop=1;jettySize=auto;html=1;strokeWidth=3;exitX=0.375;exitY=1;exitDx=0;exitDy=0;fillColor=#dae8fc;strokeColor=#6c8ebf;" edge="1" parent="1" source="40Ze9KYtn5aqHLdsqzYY-15" target="ZwONIrTSn7If3N10A5RL-2">
          <mxGeometry relative="1" as="geometry" />
        </mxCell>
        <mxCell id="ZwONIrTSn7If3N10A5RL-4" value="double click on node of tree" style="edgeLabel;html=1;align=center;verticalAlign=middle;resizable=0;points=[];" vertex="1" connectable="0" parent="ZwONIrTSn7If3N10A5RL-3">
          <mxGeometry x="-0.0984" relative="1" as="geometry">
            <mxPoint x="7" y="-40" as="offset" />
          </mxGeometry>
        </mxCell>
        <mxCell id="40Ze9KYtn5aqHLdsqzYY-15" value="Tree UI displays" style="shape=hexagon;perimeter=hexagonPerimeter2;whiteSpace=wrap;html=1;fixedSize=1;" parent="1" vertex="1">
          <mxGeometry x="610" y="700" width="120" height="80" as="geometry" />
        </mxCell>
        <mxCell id="40Ze9KYtn5aqHLdsqzYY-24" style="edgeStyle=orthogonalEdgeStyle;rounded=0;orthogonalLoop=1;jettySize=auto;html=1;strokeWidth=3;strokeColor=#b85450;fillColor=#f8cecc;entryX=0.25;entryY=0;entryDx=0;entryDy=0;exitX=0.25;exitY=1;exitDx=0;exitDy=0;" parent="1" source="40Ze9KYtn5aqHLdsqzYY-22" target="rgbOEal_TrCjj79onmxh-1" edge="1">
          <mxGeometry relative="1" as="geometry" />
        </mxCell>
        <mxCell id="40Ze9KYtn5aqHLdsqzYY-25" style="edgeStyle=orthogonalEdgeStyle;rounded=0;orthogonalLoop=1;jettySize=auto;html=1;exitX=0;exitY=1;exitDx=0;exitDy=0;entryX=0;entryY=0;entryDx=0;entryDy=0;strokeWidth=3;strokeColor=#82b366;fillColor=#d5e8d4;" parent="1" source="40Ze9KYtn5aqHLdsqzYY-22" target="rgbOEal_TrCjj79onmxh-1" edge="1">
          <mxGeometry relative="1" as="geometry" />
        </mxCell>
        <mxCell id="ZwONIrTSn7If3N10A5RL-26" style="edgeStyle=orthogonalEdgeStyle;rounded=0;orthogonalLoop=1;jettySize=auto;html=1;exitX=0.5;exitY=1;exitDx=0;exitDy=0;strokeColor=#d79b00;strokeWidth=3;fillColor=#ffe6cc;" edge="1" parent="1" source="40Ze9KYtn5aqHLdsqzYY-22" target="rgbOEal_TrCjj79onmxh-1">
          <mxGeometry relative="1" as="geometry" />
        </mxCell>
        <mxCell id="ZwONIrTSn7If3N10A5RL-35" style="edgeStyle=orthogonalEdgeStyle;rounded=0;orthogonalLoop=1;jettySize=auto;html=1;exitX=0.75;exitY=1;exitDx=0;exitDy=0;entryX=0.75;entryY=0;entryDx=0;entryDy=0;strokeColor=#9673a6;strokeWidth=3;fillColor=#e1d5e7;" edge="1" parent="1" source="40Ze9KYtn5aqHLdsqzYY-22" target="rgbOEal_TrCjj79onmxh-1">
          <mxGeometry relative="1" as="geometry" />
        </mxCell>
        <mxCell id="40Ze9KYtn5aqHLdsqzYY-22" value="&lt;span style=&quot;background-color: rgb(248 , 249 , 250)&quot;&gt;Event&lt;/span&gt;&lt;span style=&quot;font-size: 11px ; background-color: rgb(255 , 255 , 255)&quot;&gt;: AT SELECTION-SCREEN&lt;/span&gt;" style="rounded=0;whiteSpace=wrap;html=1;" parent="1" vertex="1">
          <mxGeometry x="434" y="40" width="256" height="60" as="geometry" />
        </mxCell>
        <mxCell id="ZwONIrTSn7If3N10A5RL-6" value="" style="edgeStyle=orthogonalEdgeStyle;rounded=0;orthogonalLoop=1;jettySize=auto;html=1;strokeWidth=3;strokeColor=#6c8ebf;fillColor=#dae8fc;" edge="1" parent="1" source="ZwONIrTSn7If3N10A5RL-2" target="ZwONIrTSn7If3N10A5RL-5">
          <mxGeometry relative="1" as="geometry" />
        </mxCell>
        <mxCell id="ZwONIrTSn7If3N10A5RL-2" value="PAI Module:&amp;nbsp;d1000_ok_code" style="whiteSpace=wrap;html=1;" vertex="1" parent="1">
          <mxGeometry x="250" y="680" width="210" height="60" as="geometry" />
        </mxCell>
        <mxCell id="ZwONIrTSn7If3N10A5RL-8" value="" style="edgeStyle=orthogonalEdgeStyle;rounded=0;orthogonalLoop=1;jettySize=auto;html=1;strokeWidth=3;strokeColor=#6c8ebf;fillColor=#dae8fc;" edge="1" parent="1" source="ZwONIrTSn7If3N10A5RL-5" target="ZwONIrTSn7If3N10A5RL-7">
          <mxGeometry relative="1" as="geometry" />
        </mxCell>
        <mxCell id="ZwONIrTSn7If3N10A5RL-5" value="Form:&amp;nbsp;PROCESS_OK_CODE" style="whiteSpace=wrap;html=1;" vertex="1" parent="1">
          <mxGeometry x="250" y="790" width="210" height="60" as="geometry" />
        </mxCell>
        <mxCell id="ZwONIrTSn7If3N10A5RL-10" value="" style="edgeStyle=orthogonalEdgeStyle;rounded=0;orthogonalLoop=1;jettySize=auto;html=1;strokeWidth=3;strokeColor=#6c8ebf;fillColor=#dae8fc;" edge="1" parent="1" source="ZwONIrTSn7If3N10A5RL-7" target="ZwONIrTSn7If3N10A5RL-9">
          <mxGeometry relative="1" as="geometry" />
        </mxCell>
        <mxCell id="ZwONIrTSn7If3N10A5RL-48" style="edgeStyle=orthogonalEdgeStyle;rounded=0;orthogonalLoop=1;jettySize=auto;html=1;exitX=1;exitY=1;exitDx=0;exitDy=0;entryX=0.25;entryY=0;entryDx=0;entryDy=0;strokeColor=#9673a6;strokeWidth=3;fillColor=#e1d5e7;" edge="1" parent="1" source="ZwONIrTSn7If3N10A5RL-7" target="ZwONIrTSn7If3N10A5RL-9">
          <mxGeometry relative="1" as="geometry">
            <Array as="points">
              <mxPoint x="600" y="970" />
            </Array>
          </mxGeometry>
        </mxCell>
        <mxCell id="ZwONIrTSn7If3N10A5RL-7" value="Form:&amp;nbsp;NEWOBJECT" style="whiteSpace=wrap;html=1;" vertex="1" parent="1">
          <mxGeometry x="250" y="910" width="210" height="60" as="geometry" />
        </mxCell>
        <mxCell id="ZwONIrTSn7If3N10A5RL-12" value="" style="edgeStyle=orthogonalEdgeStyle;rounded=0;orthogonalLoop=1;jettySize=auto;html=1;strokeWidth=3;strokeColor=#6c8ebf;fillColor=#dae8fc;" edge="1" parent="1" source="ZwONIrTSn7If3N10A5RL-9" target="ZwONIrTSn7If3N10A5RL-11">
          <mxGeometry relative="1" as="geometry" />
        </mxCell>
        <mxCell id="ZwONIrTSn7If3N10A5RL-49" style="edgeStyle=orthogonalEdgeStyle;rounded=0;orthogonalLoop=1;jettySize=auto;html=1;exitX=1;exitY=0;exitDx=0;exitDy=0;entryX=0.25;entryY=1;entryDx=0;entryDy=0;strokeColor=#9673a6;strokeWidth=3;fillColor=#e1d5e7;" edge="1" parent="1" source="ZwONIrTSn7If3N10A5RL-9" target="ZwONIrTSn7If3N10A5RL-11">
          <mxGeometry relative="1" as="geometry">
            <Array as="points">
              <mxPoint x="918" y="1000" />
            </Array>
          </mxGeometry>
        </mxCell>
        <mxCell id="ZwONIrTSn7If3N10A5RL-9" value="FM:&amp;nbsp;ACEEXPL_SET_ACEDSOBJ_S4" style="whiteSpace=wrap;html=1;" vertex="1" parent="1">
          <mxGeometry x="540" y="1000" width="240" height="60" as="geometry" />
        </mxCell>
        <mxCell id="ZwONIrTSn7If3N10A5RL-13" style="edgeStyle=orthogonalEdgeStyle;rounded=0;orthogonalLoop=1;jettySize=auto;html=1;exitX=0.5;exitY=0;exitDx=0;exitDy=0;strokeWidth=3;strokeColor=#6c8ebf;fillColor=#dae8fc;entryX=1;entryY=0.5;entryDx=0;entryDy=0;" edge="1" parent="1" source="ZwONIrTSn7If3N10A5RL-11" target="40Ze9KYtn5aqHLdsqzYY-8">
          <mxGeometry relative="1" as="geometry">
            <mxPoint x="750" y="560" as="targetPoint" />
            <Array as="points">
              <mxPoint x="1010" y="830" />
              <mxPoint x="1090" y="830" />
              <mxPoint x="1090" y="533" />
            </Array>
          </mxGeometry>
        </mxCell>
        <mxCell id="ZwONIrTSn7If3N10A5RL-51" style="edgeStyle=orthogonalEdgeStyle;rounded=0;orthogonalLoop=1;jettySize=auto;html=1;exitX=0.75;exitY=0;exitDx=0;exitDy=0;entryX=1;entryY=0;entryDx=0;entryDy=0;strokeColor=#9673a6;strokeWidth=3;fillColor=#e1d5e7;" edge="1" parent="1" source="ZwONIrTSn7If3N10A5RL-11" target="40Ze9KYtn5aqHLdsqzYY-8">
          <mxGeometry relative="1" as="geometry" />
        </mxCell>
        <mxCell id="ZwONIrTSn7If3N10A5RL-11" value="cl_ace_mdo_db_buffer=&amp;gt;go_dbbuf_postings-&amp;gt;load_buffer" style="whiteSpace=wrap;html=1;" vertex="1" parent="1">
          <mxGeometry x="825" y="870" width="370" height="60" as="geometry" />
        </mxCell>
        <mxCell id="ZwONIrTSn7If3N10A5RL-17" style="edgeStyle=orthogonalEdgeStyle;rounded=0;orthogonalLoop=1;jettySize=auto;html=1;exitX=0.063;exitY=0.788;exitDx=0;exitDy=0;exitPerimeter=0;" edge="1" parent="1" source="ZwONIrTSn7If3N10A5RL-19" target="ZwONIrTSn7If3N10A5RL-20">
          <mxGeometry relative="1" as="geometry">
            <Array as="points">
              <mxPoint x="975" y="260" />
              <mxPoint x="1070" y="260" />
            </Array>
          </mxGeometry>
        </mxCell>
        <mxCell id="ZwONIrTSn7If3N10A5RL-18" value="single selection" style="edgeLabel;html=1;align=center;verticalAlign=middle;resizable=0;points=[];" vertex="1" connectable="0" parent="ZwONIrTSn7If3N10A5RL-17">
          <mxGeometry x="0.2255" y="3" relative="1" as="geometry">
            <mxPoint x="-57.04" y="-22" as="offset" />
          </mxGeometry>
        </mxCell>
        <mxCell id="ZwONIrTSn7If3N10A5RL-19" value="ACAC" style="ellipse;whiteSpace=wrap;html=1;aspect=fixed;" vertex="1" parent="1">
          <mxGeometry x="970" y="140" width="80" height="80" as="geometry" />
        </mxCell>
        <mxCell id="ZwONIrTSn7If3N10A5RL-22" style="edgeStyle=orthogonalEdgeStyle;rounded=0;orthogonalLoop=1;jettySize=auto;html=1;entryX=0.5;entryY=0;entryDx=0;entryDy=0;strokeColor=#d79b00;strokeWidth=3;fillColor=#ffe6cc;" edge="1" parent="1" source="ZwONIrTSn7If3N10A5RL-20" target="40Ze9KYtn5aqHLdsqzYY-22">
          <mxGeometry relative="1" as="geometry">
            <Array as="points">
              <mxPoint x="860" y="350" />
              <mxPoint x="860" y="10" />
              <mxPoint x="562" y="10" />
            </Array>
          </mxGeometry>
        </mxCell>
        <mxCell id="ZwONIrTSn7If3N10A5RL-25" value="Press Enter on selection screen" style="edgeLabel;html=1;align=center;verticalAlign=middle;resizable=0;points=[];" vertex="1" connectable="0" parent="ZwONIrTSn7If3N10A5RL-22">
          <mxGeometry x="-0.8258" y="-1" relative="1" as="geometry">
            <mxPoint x="-17" y="1" as="offset" />
          </mxGeometry>
        </mxCell>
        <mxCell id="ZwONIrTSn7If3N10A5RL-33" style="edgeStyle=orthogonalEdgeStyle;rounded=0;orthogonalLoop=1;jettySize=auto;html=1;exitX=0.5;exitY=1;exitDx=0;exitDy=0;entryX=0.75;entryY=0;entryDx=0;entryDy=0;strokeColor=#9673a6;strokeWidth=3;fillColor=#e1d5e7;" edge="1" parent="1" source="ZwONIrTSn7If3N10A5RL-20" target="40Ze9KYtn5aqHLdsqzYY-22">
          <mxGeometry relative="1" as="geometry">
            <Array as="points">
              <mxPoint x="1070" y="410" />
              <mxPoint x="810" y="410" />
              <mxPoint x="810" y="20" />
              <mxPoint x="626" y="20" />
            </Array>
          </mxGeometry>
        </mxCell>
        <mxCell id="ZwONIrTSn7If3N10A5RL-34" value="Directly Press F8 on selection screen" style="edgeLabel;html=1;align=center;verticalAlign=middle;resizable=0;points=[];" vertex="1" connectable="0" parent="ZwONIrTSn7If3N10A5RL-33">
          <mxGeometry x="-0.5827" y="-1" relative="1" as="geometry">
            <mxPoint as="offset" />
          </mxGeometry>
        </mxCell>
        <mxCell id="ZwONIrTSn7If3N10A5RL-20" value="" style="rhombus;whiteSpace=wrap;html=1;" vertex="1" parent="1">
          <mxGeometry x="1030" y="310" width="80" height="80" as="geometry" />
        </mxCell>
        <mxCell id="ZwONIrTSn7If3N10A5RL-31" style="edgeStyle=orthogonalEdgeStyle;rounded=0;orthogonalLoop=1;jettySize=auto;html=1;strokeColor=#000000;strokeWidth=7;entryX=0;entryY=0.5;entryDx=0;entryDy=0;" edge="1" parent="1" source="ZwONIrTSn7If3N10A5RL-30" target="ZwONIrTSn7If3N10A5RL-41">
          <mxGeometry relative="1" as="geometry" />
        </mxCell>
        <mxCell id="ZwONIrTSn7If3N10A5RL-45" style="edgeStyle=orthogonalEdgeStyle;rounded=0;orthogonalLoop=1;jettySize=auto;html=1;exitX=1;exitY=0;exitDx=0;exitDy=0;entryX=0;entryY=0;entryDx=0;entryDy=0;strokeColor=#9673a6;strokeWidth=3;fillColor=#e1d5e7;" edge="1" parent="1" source="ZwONIrTSn7If3N10A5RL-30" target="ZwONIrTSn7If3N10A5RL-41">
          <mxGeometry relative="1" as="geometry" />
        </mxCell>
        <mxCell id="ZwONIrTSn7If3N10A5RL-30" value="Event:&amp;nbsp;&lt;span style=&quot;font-size: 11px ; background-color: rgb(255 , 255 , 255)&quot;&gt;Event:&amp;nbsp;&lt;/span&gt;&lt;span style=&quot;font-size: 11px&quot;&gt;END-OF-SELECTION&lt;/span&gt;" style="rounded=0;whiteSpace=wrap;html=1;" vertex="1" parent="1">
          <mxGeometry x="400" y="610" width="230" height="50" as="geometry" />
        </mxCell>
        <mxCell id="ZwONIrTSn7If3N10A5RL-43" style="edgeStyle=orthogonalEdgeStyle;rounded=0;orthogonalLoop=1;jettySize=auto;html=1;exitX=0.75;exitY=1;exitDx=0;exitDy=0;strokeColor=#000000;strokeWidth=7;" edge="1" parent="1" source="ZwONIrTSn7If3N10A5RL-41" target="ZwONIrTSn7If3N10A5RL-42">
          <mxGeometry relative="1" as="geometry">
            <Array as="points">
              <mxPoint x="993" y="670" />
              <mxPoint x="940" y="670" />
            </Array>
          </mxGeometry>
        </mxCell>
        <mxCell id="ZwONIrTSn7If3N10A5RL-46" style="edgeStyle=orthogonalEdgeStyle;rounded=0;orthogonalLoop=1;jettySize=auto;html=1;exitX=0;exitY=1;exitDx=0;exitDy=0;entryX=0.25;entryY=0;entryDx=0;entryDy=0;strokeColor=#9673a6;strokeWidth=3;fillColor=#e1d5e7;" edge="1" parent="1" source="ZwONIrTSn7If3N10A5RL-41" target="ZwONIrTSn7If3N10A5RL-42">
          <mxGeometry relative="1" as="geometry" />
        </mxCell>
        <mxCell id="ZwONIrTSn7If3N10A5RL-41" value="Form:&amp;nbsp;CALL_TREE_FOR_DISPLAY" style="rounded=0;whiteSpace=wrap;html=1;" vertex="1" parent="1">
          <mxGeometry x="820" y="610" width="230" height="50" as="geometry" />
        </mxCell>
        <mxCell id="ZwONIrTSn7If3N10A5RL-44" style="edgeStyle=orthogonalEdgeStyle;rounded=0;orthogonalLoop=1;jettySize=auto;html=1;entryX=1;entryY=0.5;entryDx=0;entryDy=0;strokeColor=#000000;strokeWidth=7;" edge="1" parent="1" source="ZwONIrTSn7If3N10A5RL-42" target="40Ze9KYtn5aqHLdsqzYY-15">
          <mxGeometry relative="1" as="geometry" />
        </mxCell>
        <mxCell id="ZwONIrTSn7If3N10A5RL-47" style="edgeStyle=orthogonalEdgeStyle;rounded=0;orthogonalLoop=1;jettySize=auto;html=1;exitX=0;exitY=1;exitDx=0;exitDy=0;entryX=1;entryY=0;entryDx=0;entryDy=0;strokeColor=#9673a6;strokeWidth=3;fillColor=#e1d5e7;" edge="1" parent="1" source="ZwONIrTSn7If3N10A5RL-42" target="ZwONIrTSn7If3N10A5RL-7">
          <mxGeometry relative="1" as="geometry">
            <Array as="points">
              <mxPoint x="820" y="838" />
              <mxPoint x="490" y="838" />
              <mxPoint x="490" y="910" />
            </Array>
          </mxGeometry>
        </mxCell>
        <mxCell id="ZwONIrTSn7If3N10A5RL-42" value="FM:&amp;nbsp;ACE_HANDLE_ACCRUAL_OBJECT_S4" style="rounded=0;whiteSpace=wrap;html=1;" vertex="1" parent="1">
          <mxGeometry x="820" y="715" width="260" height="50" as="geometry" />
        </mxCell>
        <mxCell id="ZwONIrTSn7If3N10A5RL-52" style="edgeStyle=orthogonalEdgeStyle;rounded=0;orthogonalLoop=1;jettySize=auto;html=1;strokeWidth=7;entryX=0;entryY=0.5;entryDx=0;entryDy=0;" edge="1" parent="1">
          <mxGeometry relative="1" as="geometry">
            <mxPoint x="40" y="650" as="sourcePoint" />
            <mxPoint x="40" y="752.5" as="targetPoint" />
          </mxGeometry>
        </mxCell>
        <mxCell id="ZwONIrTSn7If3N10A5RL-53" style="edgeStyle=orthogonalEdgeStyle;rounded=0;orthogonalLoop=1;jettySize=auto;html=1;entryX=0;entryY=0;entryDx=0;entryDy=0;strokeWidth=3;strokeColor=#82b366;fillColor=#d5e8d4;" edge="1" parent="1">
          <mxGeometry relative="1" as="geometry">
            <mxPoint x="30" y="590" as="sourcePoint" />
            <mxPoint x="29.99999999999909" y="640" as="targetPoint" />
          </mxGeometry>
        </mxCell>
        <mxCell id="ZwONIrTSn7If3N10A5RL-54" value="" style="edgeStyle=orthogonalEdgeStyle;rounded=0;orthogonalLoop=1;jettySize=auto;html=1;strokeColor=#b85450;strokeWidth=3;fillColor=#f8cecc;" edge="1" parent="1">
          <mxGeometry relative="1" as="geometry">
            <mxPoint x="50" y="590" as="sourcePoint" />
            <mxPoint x="50" y="640" as="targetPoint" />
            <Array as="points">
              <mxPoint x="50" y="590" />
            </Array>
          </mxGeometry>
        </mxCell>
      </root>
    </mxGraphModel>
  </diagram>
</mxfile>
